 http://img853.imageshack.us/img853/9103/mv5bmtmymjk2ntewmv5bml5.jpg

Country.......: USA
Genre.........: Drama, Action, War
Date release..: 13.06.2011 [World]
Director......: Renny Harlin
Writers.......: Mikko Alanne, David Battle
Duration......: 108 min.
More..........: http://www.imdb.com/title/tt1486193
Trailer.......: http://www.imdb.com/video/screenplay/vi1149213977
Trailer.......:

Pilot :
A drama set centered around the war between Russia and Georgia, and focused on an American journalist, his cameraman, and a Georgian native who become caught in the crossfire. 

Cats :
Rupert Friend   	 ...  	Thomas Anders
Val Kilmer 	... 	Dutchman
Andy Garcia 	... 	President of Georgia
Dean Cain 	... 	Chris Bailot
Emmanuelle Chriqui 	... 	Tatia
Heather Graham 	... 	Miriam
Mikko Nousiainen 	... 	Daniil
Richard Coyle 	... 	Sebastian Ganz
Antje Traue 	... 	Zoe
Rade Serbedzija 	... 	Col. Demidov
Mikheil Gomiashvili 	... 	Anton Medoevi
Johnathon Schaech 	... 	Capt. Rezo Avaliani
Anna Walton 	... 	Karin Lange
Luke Albright 	... 	Jameson | Satellite Van Technician
Levan Baidashvili 	... 	Kid at wedding 

Data Technical :
!!! SAMPLE !!!
Audio.....: English
Subtitles.: None
Format                           : AVI
Format/Info                      : Audio Video Interleave
File size                        : 1.37 GiB
Duration                         : 1h 48mn
Overall bit rate                 : 1 807 Kbps
Writing application              : VirtualDubMod 1.5.10.2 (build 2540/release)
Writing library                  : VirtualDubMod build 2540/release
Video
ID                               : 0
Format                           : MPEG-4 Visual
Format profile                   : Advanced Simple@L5
Format settings, BVOP            : Yes
Format settings, QPel            : No
Format settings, GMC             : No warppoints
Format settings, Matrix          : Default (MPEG)
Muxing mode                      : Packed bitstream
Codec ID                         : XVID
Codec ID/Hint                    : XviD
Duration                         : 1h 48mn
Bit rate                         : 1 414 Kbps
Width                            : 704 pixels
Height                           : 288 pixels
Display aspect ratio             : 2.40:1
Frame rate                       : 25.000 fps
Color space                      : YUV
Chroma subsampling               : 4:2:0
Bit depth                        : 8 bits
Scan type                        : Progressive
Bits/(Pixel*Frame)               : 0.279
Stream size                      : 1.07 GiB (78%)
Writing library                  : XviD 58
Audio
ID                               : 1
Format                           : AC-3
Format/Info                      : Audio Coding 3
Mode extension                   : CM (complete main)
Codec ID                         : 2000
Duration                         : 1h 48mn
Bit rate mode                    : Constant
Bit rate                         : 384 Kbps
Channel(s)                       : 6 channels
Channel positions                : Front: L C R, Side: L R, LFE
Sampling rate                    : 48.0 KHz
Bit depth                        : 16 bits
Stream size                      : 298 MiB (21%)
Alignment                        : Split accross interleaves
Interleave, duration             : 40 ms (1.00 video frame)
Interleave, preload duration     : 500 ms

Screen : 
http://img854.imageshack.us/img854/4049/5daysofwar2011s1.jpg 
http://img16.imageshack.us/img16/5374/5daysofwar2011s2.jpg 
http://img32.imageshack.us/img32/5194/5daysofwar2011s3.jpg 
http://img600.imageshack.us/img600/594/5daysofwar2011s4.jpg 
http://img849.imageshack.us/img849/3518/5daysofwar2011s5.jpg